<svg width="21" height="22" viewBox="0 0 21 22" fill="none" xmlns="http://www.w3.org/2000/svg">
<path fill-rule="evenodd" clip-rule="evenodd" d="M15.552 20.133C14.112 20.08 10.031 19.516 5.757 15.243C1.484 10.969 0.921 6.889 0.867 5.448C0.787 3.252 2.469 1.119 4.412 0.286002C4.64598 0.184969 4.9022 0.146502 5.15553 0.174377C5.40886 0.202252 5.65059 0.295511 5.857 0.445002C7.457 1.611 8.561 3.375 9.509 4.762C9.71758 5.06673 9.80677 5.43755 9.75956 5.8038C9.71235 6.17005 9.53204 6.50613 9.253 6.748L7.302 8.197C7.20774 8.26507 7.14139 8.36503 7.11528 8.47832C7.08916 8.59162 7.10505 8.71054 7.16 8.813C7.602 9.616 8.388 10.812 9.288 11.712C10.188 12.612 11.441 13.45 12.3 13.942C12.4077 14.0025 12.5345 14.0194 12.6543 13.9892C12.774 13.9591 12.8777 13.8842 12.944 13.78L14.214 11.847C14.4475 11.5368 14.7919 11.3291 15.1752 11.2672C15.5584 11.2053 15.9508 11.2941 16.27 11.515C17.677 12.489 19.319 13.574 20.521 15.113C20.6826 15.3209 20.7854 15.5684 20.8187 15.8296C20.8519 16.0909 20.8144 16.3562 20.71 16.598C19.873 18.551 17.755 20.214 15.552 20.133Z" fill="white"/>
</svg>
